<?xml version="1.0" encoding="UTF-8"?>
<svg version="1.1" xmlns="http://www.w3.org/2000/svg" width="300" height="186">
<path d="M0 0 C0.474375 0.45375 0.94875 0.9075 1.4375 1.375 C1.4375 2.035 1.4375 2.695 1.4375 3.375 C2.0975 3.375 2.7575 3.375 3.4375 3.375 C4.9453125 5.2734375 4.9453125 5.2734375 6.5625 7.75 C7.10132813 8.56210937 7.64015625 9.37421875 8.1953125 10.2109375 C9.4375 12.375 9.4375 12.375 9.4375 14.375 C10.4275 14.375 11.4175 14.375 12.4375 14.375 C12.64375 13.715 12.85 13.055 13.0625 12.375 C14.95907353 8.23702139 17.59961457 4.91121326 20.4375 1.375 C21.30375 0.2303125 21.30375 0.2303125 22.1875 -0.9375 C27.49546493 -4.9184737 34.9350807 -6.45258064 41.4375 -5.625 C55.49218265 -1.79190473 61.84331078 12.44447746 68.94238281 23.96435547 C71.1255944 27.48444548 73.36885771 30.96385197 75.625 34.4375 C76.05917236 35.10789307 76.49334473 35.77828613 76.94067383 36.46899414 C79.7841952 40.85194088 82.64881561 45.22075912 85.51953125 49.5859375 C89.16934458 55.13731374 92.80292923 60.69878925 96.42089844 66.27099609 C97.70683547 68.25034276 98.99619468 70.22747324 100.29003906 72.20166016 C101.89882207 74.66513771 103.48439843 77.14179535 105.0625 79.625 C105.76342773 80.68642212 105.76342773 80.68642212 106.47851562 81.76928711 C108.46240896 84.94266266 109.45155305 86.92998684 109.33203125 90.71484375 C108.05348356 94.51698776 106.00309284 96.59220358 102.4375 98.375 C100.62140289 98.4913585 98.80111804 98.54465106 96.98144531 98.56787109 C95.83975891 98.58393402 94.69807251 98.59999695 93.52178955 98.61654663 C88.2931902 98.66093888 83.0646786 98.70250897 77.8359375 98.72509766 C75.07713546 98.73842128 72.31907589 98.76624243 69.56054688 98.80712891 C65.5872604 98.86601723 61.61433293 98.88376985 57.640625 98.8984375 C55.79346893 98.93244156 55.79346893 98.93244156 53.90899658 98.96713257 C44.36248713 98.94356156 44.36248713 98.94356156 40.8046875 96.12695312 C38.75431212 93.74330716 36.96010655 91.51975406 35.359375 88.8203125 C34.8430249 87.9651001 34.3266748 87.1098877 33.79467773 86.22875977 C33.26430908 85.32826904 32.73394043 84.42777832 32.1875 83.5 C31.05026193 81.61462629 29.91092087 79.73051955 28.76953125 77.84765625 C28.20959473 76.92098145 27.6496582 75.99430664 27.07275391 75.03955078 C24.76371809 71.27711171 22.34165394 67.59796929 19.875 63.9375 C19.4821582 63.35436035 19.08931641 62.7712207 18.68457031 62.17041016 C17.60382467 60.57085036 16.52071354 58.97288958 15.4375 57.375 C14.72722656 56.27027344 14.01695312 55.16554687 13.28515625 54.02734375 C11.70634479 51.31013737 11.70634479 51.31013737 9.4375 50.375 C9.19386719 51.05820313 8.95023437 51.74140625 8.69921875 52.4453125 C7.19763322 55.9319662 5.28201059 59.05713154 3.25 62.25 C2.82436768 62.92256836 2.39873535 63.59513672 1.96020508 64.28808594 C1.00113527 65.79820394 0.03929244 67.30656315 -0.92480469 68.81347656 C-2.09330875 70.64113677 -3.25755939 72.47151926 -4.41894531 74.30371094 C-6.39464552 77.41708436 -8.38326456 80.52186496 -10.375 83.625 C-11.00881592 84.62515137 -11.64263184 85.62530273 -12.2956543 86.65576172 C-12.90578369 87.5995166 -13.51591309 88.54327148 -14.14453125 89.515625 C-14.68311768 90.35641602 -15.2217041 91.19720703 -15.77661133 92.06347656 C-20.43076261 98.08746895 -20.43076261 98.08746895 -25.1743927 98.72729492 C-28.57143434 98.87322137 -31.94378865 98.87647546 -35.34375 98.8359375 C-36.58999146 98.83502106 -37.83623291 98.83410461 -39.12023926 98.8331604 C-42.42628316 98.82557916 -45.7315529 98.79960872 -49.03741455 98.76623535 C-52.39344276 98.73932967 -55.74933634 98.74568392 -59.10546875 98.74609375 C-61.66407045 98.7362616 -64.22266591 98.72460418 -66.78125 98.7109375 C-67.98656372 98.70871185 -69.19187744 98.70648621 -70.43371582 98.70419312 C-71.55838257 98.69143341 -72.68304932 98.67867371 -73.84179688 98.66552734 C-75.32141907 98.65409195 -75.32141907 98.65409195 -76.83093262 98.64242554 C-79.7940367 98.35233213 -81.91863942 97.73845634 -84.5625 96.375 C-87.04536367 92.65070449 -87.14095797 89.69048013 -86.5625 85.375 C-85.19140625 82.2265625 -85.19140625 82.2265625 -83.125 79 C-82.73812012 78.38624512 -82.35124023 77.77249023 -81.95263672 77.14013672 C-80.51060598 74.87068467 -79.03744364 72.62320227 -77.5625 70.375 C-76.23018887 68.32309837 -74.8981794 66.27100085 -73.56640625 64.21875 C-70.6287704 59.70454639 -67.67909475 55.19855514 -64.71875 50.69921875 C-61.35367307 45.58390629 -58.0088172 40.45631185 -54.6875 35.3125 C-54.26001465 34.6512915 -53.8325293 33.99008301 -53.39208984 33.30883789 C-51.15502081 29.84699283 -48.92365199 26.38153235 -46.6953125 22.9140625 C-44.39748059 19.3398725 -42.08141701 15.77802783 -39.75683594 12.22119141 C-38.69559533 10.58073731 -37.66213473 8.92238639 -36.6328125 7.26171875 C-32.48821996 0.81563588 -27.94367674 -3.0614128 -20.4921875 -5.2265625 C-12.56365719 -6.86362746 -6.57867215 -4.17184088 0 0 Z M-19.375 15.25 C-20.72510712 17.2602657 -20.72510712 17.2602657 -20.5625 19.375 C-21.2225 19.375 -21.8825 19.375 -22.5625 19.375 C-23.72440467 20.84048608 -23.72440467 20.84048608 -24.8125 22.78515625 C-25.25078125 23.52000244 -25.6890625 24.25484863 -26.140625 25.01196289 C-26.60984375 25.81239014 -27.0790625 26.61281738 -27.5625 27.4375 C-31.10486756 33.36106101 -34.6983652 39.21798876 -38.5625 44.9375 C-42.220958 50.36173069 -45.82289016 55.8179052 -49.375 61.3125 C-49.81908203 61.99836182 -50.26316406 62.68422363 -50.72070312 63.39086914 C-52.00655932 65.38225432 -53.28476951 67.37839412 -54.5625 69.375 C-55.03606934 70.10477051 -55.50963867 70.83454102 -55.99755859 71.58642578 C-56.45598145 72.30169434 -56.9144043 73.01696289 -57.38671875 73.75390625 C-57.80397217 74.40045166 -58.22122559 75.04699707 -58.65112305 75.71313477 C-59.7227818 77.3513745 -59.7227818 77.3513745 -59.5625 79.375 C-54.37069092 80.85532495 -49.11500042 80.83985073 -43.75 81 C-42.68201172 81.07089844 -41.61402344 81.14179687 -40.51367188 81.21484375 C-34.50834322 81.39596876 -34.50834322 81.39596876 -29.40991211 78.59521484 C-27.57275734 76.27613868 -26.05018246 73.93061233 -24.5625 71.375 C-23.72308905 70.09086282 -22.88327896 68.80698641 -22.04296875 67.5234375 C-21.27416973 66.26835588 -20.50990791 65.01048474 -19.75 63.75 C-14.20748701 54.71895147 -8.51407558 45.71816033 -2.2109375 37.1953125 C-0.3947616 34.63616303 -0.3947616 34.63616303 -0.5703125 32.40625 C-2.01560472 29.44738404 -3.67921363 26.65422684 -5.4375 23.875 C-5.96537109 23.02228516 -5.96537109 23.02228516 -6.50390625 22.15234375 C-9.31295666 17.60410719 -9.31295666 17.60410719 -12.5625 13.375 C-15.88701459 12.71009708 -16.99059965 12.78337895 -19.375 15.25 Z M32.59375 15.28125 C31.77390625 16.56515625 31.77390625 16.56515625 30.9375 17.875 C30.3496875 18.78507812 29.761875 19.69515625 29.15625 20.6328125 C28.5890625 21.53773437 28.021875 22.44265625 27.4375 23.375 C26.9115625 24.13554688 26.385625 24.89609375 25.84375 25.6796875 C25.3796875 26.36289062 24.915625 27.04609375 24.4375 27.75 C23.81875 28.65878906 23.81875 28.65878906 23.1875 29.5859375 C22.18998013 31.96543802 22.6406126 32.93877002 23.4375 35.375 C24.24876086 36.88971011 25.11852482 38.37376548 26.02734375 39.83203125 C26.55972656 40.69030518 27.09210938 41.5485791 27.640625 42.43286133 C28.21296875 43.34189209 28.7853125 44.25092285 29.375 45.1875 C30.25091797 46.59068481 30.25091797 46.59068481 31.14453125 48.0222168 C35.42481522 54.84742397 39.82873051 61.57973059 44.3515625 68.24609375 C46.10247597 70.87246395 47.72571617 73.52361688 49.3125 76.25 C51.02786026 79.40412831 51.02786026 79.40412831 53.19042969 80.06420898 C55.98931585 80.45132134 58.68935116 80.48651053 61.515625 80.47265625 C63.25585938 80.46782227 63.25585938 80.46782227 65.03125 80.46289062 C66.2378125 80.45451172 67.444375 80.44613281 68.6875 80.4375 C69.90953125 80.43298828 71.1315625 80.42847656 72.390625 80.42382812 C75.40629946 80.41204815 78.42187498 80.39559853 81.4375 80.375 C80.79525092 76.86384658 80.14445297 74.53732727 78.0625 71.625 C75.12185055 67.38434713 72.29176894 63.08925873 69.5 58.75 C64.30539109 50.70008834 59.0726698 42.67533117 53.82836914 34.65771484 C50.13290404 29.00079143 46.49146816 23.31484741 42.90917969 17.58544922 C41.48921105 15.29556693 41.48921105 15.29556693 39.4375 13.375 C36.12590276 12.81589917 34.9701062 12.82433935 32.59375 15.28125 Z " fill="#29B5C8" transform="translate(138.5625,14.625)"/>
<path d="M0 0 C0.474375 0.45375 0.94875 0.9075 1.4375 1.375 C1.4375 2.035 1.4375 2.695 1.4375 3.375 C2.0975 3.375 2.7575 3.375 3.4375 3.375 C5.625 6.1875 5.625 6.1875 7.4375 9.375 C7.1075 10.365 6.7775 11.355 6.4375 12.375 C5.4475 11.385 4.4575 10.395 3.4375 9.375 C2.70578456 11.65144803 2.32345381 12.98217425 3 15.3125 C3.60202755 18.15062988 2.65016333 19.80700707 1.4375 22.375 C0.7775 22.375 0.1175 22.375 -0.5625 22.375 C-0.5625 21.385 -0.5625 20.395 -0.5625 19.375 C-1.2225 19.375 -1.8825 19.375 -2.5625 19.375 C-1.64331374 25.03525222 -0.94424429 28.43143014 3.4375 32.375 C3.4375 33.695 3.4375 35.015 3.4375 36.375 C4.0975 36.375 4.7575 36.375 5.4375 36.375 C5.9325 39.84 5.9325 39.84 6.4375 43.375 C7.0975 43.375 7.7575 43.375 8.4375 43.375 C9.4275 45.685 10.4175 47.995 11.4375 50.375 C10.7775 50.375 10.1175 50.375 9.4375 50.375 C9.19386719 51.05820313 8.95023437 51.74140625 8.69921875 52.4453125 C7.19763322 55.9319662 5.28201059 59.05713154 3.25 62.25 C2.82436768 62.92256836 2.39873535 63.59513672 1.96020508 64.28808594 C1.00113527 65.79820394 0.03929244 67.30656315 -0.92480469 68.81347656 C-2.09330875 70.64113677 -3.25755939 72.47151926 -4.41894531 74.30371094 C-6.39464552 77.41708436 -8.38326456 80.52186496 -10.375 83.625 C-11.00881592 84.62515137 -11.64263184 85.62530273 -12.2956543 86.65576172 C-12.90578369 87.5995166 -13.51591309 88.54327148 -14.14453125 89.515625 C-14.68311768 90.35641602 -15.2217041 91.19720703 -15.77661133 92.06347656 C-20.43076261 98.08746895 -20.43076261 98.08746895 -25.1743927 98.72729492 C-28.57143434 98.87322137 -31.94378865 98.87647546 -35.34375 98.8359375 C-36.58999146 98.83502106 -37.83623291 98.83410461 -39.12023926 98.8331604 C-42.42628316 98.82557916 -45.7315529 98.79960872 -49.03741455 98.76623535 C-52.39344276 98.73932967 -55.74933634 98.74568392 -59.10546875 98.74609375 C-61.66407045 98.7362616 -64.22266591 98.72460418 -66.78125 98.7109375 C-67.98656372 98.70871185 -69.19187744 98.70648621 -70.43371582 98.70419312 C-71.55838257 98.69143341 -72.68304932 98.67867371 -73.84179688 98.66552734 C-75.32141907 98.65409195 -75.32141907 98.65409195 -76.83093262 98.64242554 C-79.7940367 98.35233213 -81.91863942 97.73845634 -84.5625 96.375 C-87.04536367 92.65070449 -87.14095797 89.69048013 -86.5625 85.375 C-85.19140625 82.2265625 -85.19140625 82.2265625 -83.125 79 C-82.73812012 78.38624512 -82.35124023 77.77249023 -81.95263672 77.14013672 C-80.51060598 74.87068467 -79.03744364 72.62320227 -77.5625 70.375 C-76.23018887 68.32309837 -74.8981794 66.27100085 -73.56640625 64.21875 C-70.6287704 59.70454639 -67.67909475 55.19855514 -64.71875 50.69921875 C-61.35367307 45.58390629 -58.0088172 40.45631185 -54.6875 35.3125 C-54.26001465 34.6512915 -53.8325293 33.99008301 -53.39208984 33.30883789 C-51.15502081 29.84699283 -48.92365199 26.38153235 -46.6953125 22.9140625 C-44.39748059 19.3398725 -42.08141701 15.77802783 -39.75683594 12.22119141 C-38.69559533 10.58073731 -37.66213473 8.92238639 -36.6328125 7.26171875 C-32.48821996 0.81563588 -27.94367674 -3.0614128 -20.4921875 -5.2265625 C-12.56365719 -6.86362746 -6.57867215 -4.17184088 0 0 Z M-19.375 15.25 C-20.72510712 17.2602657 -20.72510712 17.2602657 -20.5625 19.375 C-21.2225 19.375 -21.8825 19.375 -22.5625 19.375 C-23.72440467 20.84048608 -23.72440467 20.84048608 -24.8125 22.78515625 C-25.25078125 23.52000244 -25.6890625 24.25484863 -26.140625 25.01196289 C-26.60984375 25.81239014 -27.0790625 26.61281738 -27.5625 27.4375 C-31.10486756 33.36106101 -34.6983652 39.21798876 -38.5625 44.9375 C-42.220958 50.36173069 -45.82289016 55.8179052 -49.375 61.3125 C-49.81908203 61.99836182 -50.26316406 62.68422363 -50.72070312 63.39086914 C-52.00655932 65.38225432 -53.28476951 67.37839412 -54.5625 69.375 C-55.03606934 70.10477051 -55.50963867 70.83454102 -55.99755859 71.58642578 C-56.45598145 72.30169434 -56.9144043 73.01696289 -57.38671875 73.75390625 C-57.80397217 74.40045166 -58.22122559 75.04699707 -58.65112305 75.71313477 C-59.7227818 77.3513745 -59.7227818 77.3513745 -59.5625 79.375 C-54.37069092 80.85532495 -49.11500042 80.83985073 -43.75 81 C-42.68201172 81.07089844 -41.61402344 81.14179687 -40.51367188 81.21484375 C-34.50834322 81.39596876 -34.50834322 81.39596876 -29.40991211 78.59521484 C-27.57275734 76.27613868 -26.05018246 73.93061233 -24.5625 71.375 C-23.72308905 70.09086282 -22.88327896 68.80698641 -22.04296875 67.5234375 C-21.27416973 66.26835588 -20.50990791 65.01048474 -19.75 63.75 C-14.20748701 54.71895147 -8.51407558 45.71816033 -2.2109375 37.1953125 C-0.3947616 34.63616303 -0.3947616 34.63616303 -0.5703125 32.40625 C-2.01560472 29.44738404 -3.67921363 26.65422684 -5.4375 23.875 C-5.96537109 23.02228516 -5.96537109 23.02228516 -6.50390625 22.15234375 C-9.31295666 17.60410719 -9.31295666 17.60410719 -12.5625 13.375 C-15.88701459 12.71009708 -16.99059965 12.78337895 -19.375 15.25 Z " fill="#3D81D9" transform="translate(138.5625,14.625)"/>
<path d="M0 0 C0.99 0.33 1.98 0.66 3 1 C3.66666667 3 4.33333333 5 5 7 C5.99 7.33 6.98 7.66 8 8 C8 8.66 8 9.32 8 10 C8.99 10 9.98 10 11 10 C12.39111328 11.61376953 12.39111328 11.61376953 13.8203125 13.8828125 C14.35180908 14.71385498 14.88330566 15.54489746 15.4309082 16.40112305 C16.26948364 17.74944214 16.26948364 17.74944214 17.125 19.125 C18.28729821 20.96773953 19.45006104 22.81018608 20.61328125 24.65234375 C21.47107178 26.01915283 21.47107178 26.01915283 22.34619141 27.41357422 C23.80217993 29.69062506 25.30369466 31.91659089 26.85546875 34.12890625 C33.53209723 43.71848416 33.53209723 43.71848416 33.8125 49.125 C32.95960287 53.19266325 32.35375808 54.63264135 29 57 C25.98365867 58.50817066 22.87007131 58.14190197 19.5625 58.1328125 C18.81399277 58.13417709 18.06548553 58.13554169 17.29429626 58.13694763 C14.86281923 58.13897482 12.43146457 58.13266628 10 58.125 C9.18064972 58.12378143 8.36129944 58.12256287 7.51712036 58.12130737 C-23.80142556 58.06619148 -23.80142556 58.06619148 -30 56 C-30 55.34 -30 54.68 -30 54 C-30.99 53.67 -31.98 53.34 -33 53 C-34.375 51.25 -34.375 51.25 -35 49 C-34.1875 46.3125 -34.1875 46.3125 -32 44 C-27.78213834 42.84967409 -24.15435153 42.61521616 -20 44 C-16.91666667 42.66666667 -16.91666667 42.66666667 -14 41 C-11.07073378 39.53536689 -8.44743219 39.86817292 -5.1875 39.875 C-3.35251953 39.87113281 -3.35251953 39.87113281 -1.48046875 39.8671875 C1.49017156 39.98054527 4.1189481 40.30854754 7 41 C3.83968743 34.3147234 0.11719143 28.22637612 -4.2734375 22.2734375 C-6.59893297 19.05732674 -7.46855906 16.98275201 -7 13 C-6.01 13 -5.02 13 -4 13 C-1.99706653 9.99559979 -1.50728374 8.29006055 -0.875 4.8125 C-0.70742187 3.91144531 -0.53984375 3.01039062 -0.3671875 2.08203125 C-0.18542969 1.05142578 -0.18542969 1.05142578 0 0 Z " fill="#16D8C3" transform="translate(213,54)"/>
<path d="M0 0 C0.474375 0.45375 0.94875 0.9075 1.4375 1.375 C1.4375 2.035 1.4375 2.695 1.4375 3.375 C2.0975 3.375 2.7575 3.375 3.4375 3.375 C5.625 6.1875 5.625 6.1875 7.4375 9.375 C7.1075 10.365 6.7775 11.355 6.4375 12.375 C5.4475 11.385 4.4575 10.395 3.4375 9.375 C2.70578456 11.65144803 2.32345381 12.98217425 3 15.3125 C3.60202755 18.15062988 2.65016333 19.80700707 1.4375 22.375 C0.7775 22.375 0.1175 22.375 -0.5625 22.375 C-0.5625 21.385 -0.5625 20.395 -0.5625 19.375 C-1.2225 19.375 -1.8825 19.375 -2.5625 19.375 C-1.64331374 25.03525222 -0.94424429 28.43143014 3.4375 32.375 C3.4375 33.695 3.4375 35.015 3.4375 36.375 C4.0975 36.375 4.7575 36.375 5.4375 36.375 C5.1075 37.695 4.7775 39.015 4.4375 40.375 C4.4375 39.385 4.4375 38.395 4.4375 37.375 C3.7775 37.375 3.1175 37.375 2.4375 37.375 C1.9425 35.395 1.9425 35.395 1.4375 33.375 C0.7775 33.375 0.1175 33.375 -0.5625 33.375 C-1.67578125 31.95385742 -1.67578125 31.95385742 -2.875 29.98046875 C-3.31070313 29.27212891 -3.74640625 28.56378906 -4.1953125 27.83398438 C-4.64648438 27.08439453 -5.09765625 26.33480469 -5.5625 25.5625 C-6.45811812 24.09752465 -7.35394372 22.63267613 -8.25 21.16796875 C-8.64574219 20.5133667 -9.04148438 19.85876465 -9.44921875 19.18432617 C-10.44998281 17.55786512 -11.50319627 15.96395559 -12.5625 14.375 C-15.01922892 13.70814062 -15.01922892 13.70814062 -17.5625 14.375 C-19.27961243 16.81996043 -19.27961243 16.81996043 -20.5625 19.375 C-21.2225 19.375 -21.8825 19.375 -22.5625 19.375 C-22.79324219 20.03757812 -23.02398437 20.70015625 -23.26171875 21.3828125 C-24.94447789 25.25366385 -27.11714859 28.69197201 -29.375 32.25 C-29.80103516 32.93191406 -30.22707031 33.61382812 -30.66601562 34.31640625 C-31.94564875 36.34910637 -33.24778389 38.36483593 -34.5625 40.375 C-35.00255371 41.05723633 -35.44260742 41.73947266 -35.89599609 42.44238281 C-37.03822183 44.1430966 -38.2927043 45.76729172 -39.5625 47.375 C-40.5525 47.375 -41.5425 47.375 -42.5625 47.375 C-42.7171875 48.24125 -42.7171875 48.24125 -42.875 49.125 C-43.67146465 51.73161158 -44.75315277 53.3485311 -46.5625 55.375 C-47.2225 55.375 -47.8825 55.375 -48.5625 55.375 C-48.748125 56.5815625 -48.748125 56.5815625 -48.9375 57.8125 C-49.246875 59.0809375 -49.246875 59.0809375 -49.5625 60.375 C-50.5525 60.87 -50.5525 60.87 -51.5625 61.375 C-51.5625 60.715 -51.5625 60.055 -51.5625 59.375 C-52.2225 59.375 -52.8825 59.375 -53.5625 59.375 C-53.2325 56.735 -52.9025 54.095 -52.5625 51.375 C-53.2225 51.375 -53.8825 51.375 -54.5625 51.375 C-55.98240291 44.43325243 -55.98240291 44.43325243 -54.5625 41.375 C-53.89863281 41.13652344 -53.23476562 40.89804687 -52.55078125 40.65234375 C-51.89464844 40.23082031 -51.23851563 39.80929688 -50.5625 39.375 C-50.0065988 36.53794894 -50.0065988 36.53794894 -49.9375 33.1875 C-48.94802003 24.49612189 -44.95881099 18.95045265 -39.80371094 12.07324219 C-38.07737416 9.71124404 -36.56261872 7.22231225 -35 4.75 C-26.12123393 -7.89487775 -12.07359533 -7.6564263 0 0 Z " fill="#3593D5" transform="translate(138.5625,14.625)"/>
<path d="M0 0 C8.01766741 6.65433934 13.04920444 16.74359632 18.44335938 25.50146484 C21.36027611 30.18335409 24.39720687 34.78834105 27.43481445 39.39257812 C29.89537487 43.15781864 32.07238733 46.9235732 34 51 C33.34 51 32.68 51 32 51 C32 50.34 32 49.68 32 49 C31.38125 48.95875 30.7625 48.9175 30.125 48.875 C29.42375 48.58625 28.7225 48.2975 28 48 C26.875 45 26.875 45 26 42 C25.01 41.505 25.01 41.505 24 41 C23.89042969 41.98742188 23.78085938 42.97484375 23.66796875 43.9921875 C23.50941406 45.27351563 23.35085937 46.55484375 23.1875 47.875 C23.03667969 49.15117188 22.88585937 50.42734375 22.73046875 51.7421875 C22 55 22 55 19 57 C18.67 56.34 18.34 55.68 18 55 C17.34 55.66 16.68 56.32 16 57 C13.42130516 53.07201051 10.84363738 49.14334957 8.2668457 45.21411133 C7.39341739 43.88255423 6.51972746 42.5511687 5.64575195 41.2199707 C2.75609497 36.81834173 -0.12665988 32.41229909 -3 28 C-4.06323486 26.36732178 -4.06323486 26.36732178 -5.14794922 24.70166016 C-5.77846191 23.72374512 -6.40897461 22.74583008 -7.05859375 21.73828125 C-7.60700928 20.88919189 -8.1554248 20.04010254 -8.72045898 19.1652832 C-10 17 -10 17 -11 14 C-13.31 14 -15.62 14 -18 14 C-18.28875 14.78375 -18.5775 15.5675 -18.875 16.375 C-20 19 -20 19 -22 21 C-22 18 -22 18 -21 16 C-21.99 16.33 -22.98 16.66 -24 17 C-24.4640625 15.824375 -24.4640625 15.824375 -24.9375 14.625 C-25.92875038 12.07669872 -25.92875038 12.07669872 -27 10 C-27.99 10 -28.98 10 -30 10 C-29.505 9.236875 -29.01 8.47375 -28.5 7.6875 C-26.75631692 5.07636249 -26.75631692 5.07636249 -27 2 C-26.67 1.01 -26.34 0.02 -26 -1 C-17.05915205 -5.16211887 -8.37715861 -5.28315578 0 0 Z " fill="#1FCAC7" transform="translate(189,13)"/>
<path d="M0 0 C1.0326802 2.78823655 1.04509293 3.8677274 0.0625 6.75 C-0.4634375 7.86375 -0.4634375 7.86375 -1 9 C-0.34 9 0.32 9 1 9 C1.33 9.99 1.66 10.98 2 12 C2.99 12.66 3.98 13.32 5 14 C4.01 14 3.02 14 2 14 C2.66 14.66 3.32 15.32 4 16 C4.66 16 5.32 16 6 16 C6 16.99 6 17.98 6 19 C6.5259375 17.7625 6.5259375 17.7625 7.0625 16.5 C7.701875 15.675 8.34125 14.85 9 14 C12.6875 13.6875 12.6875 13.6875 16 14 C16 14.33 16 14.66 16 15 C15.08605469 15.22042969 14.17210937 15.44085938 13.23046875 15.66796875 C9.32892938 17.27670506 8.40471738 18.70842391 6.3125 22.3125 C5.75175781 23.25738281 5.19101563 24.20226562 4.61328125 25.17578125 C4.08089844 26.10777344 3.54851562 27.03976563 3 28 C2.43023437 28.86367188 1.86046875 29.72734375 1.2734375 30.6171875 C-0.52562549 33.98353236 0.21562785 36.36336548 1 40 C-0.98 40.495 -0.98 40.495 -3 41 C-2.67 42.32 -2.34 43.64 -2 45 C-2.825 45.556875 -3.65 46.11375 -4.5 46.6875 C-7.2745414 48.74927133 -7.2745414 48.74927133 -7.3125 51.75 C-7.209375 52.4925 -7.10625 53.235 -7 54 C-7.66 53.67 -8.32 53.34 -9 53 C-8.67 54.32 -8.34 55.64 -8 57 C-11.33511388 54.0098979 -13.21521119 51.10501426 -15 47 C-15 46.34 -15 45.68 -15 45 C-15.66 45 -16.32 45 -17 45 C-17.33 42.69 -17.66 40.38 -18 38 C-18.66 38 -19.32 38 -20 38 C-20.268125 37.4225 -20.53625 36.845 -20.8125 36.25 C-21.9126794 33.97988465 -21.9126794 33.97988465 -23.5 32.1875 C-25.50241465 29.26731197 -26.23621227 26.43704477 -27 23 C-26.67 22.34 -26.34 21.68 -26 21 C-25.34 21 -24.68 21 -24 21 C-24 21.99 -24 22.98 -24 24 C-23.34 24 -22.68 24 -22 24 C-21.814375 22.72125 -21.62875 21.4425 -21.4375 20.125 C-21.33308594 19.40570313 -21.22867188 18.68640625 -21.12109375 17.9453125 C-20.8315703 15.91859333 -20.8315703 15.91859333 -22 14 C-21.72057545 12.32345271 -21.39171753 10.65391846 -21 9 C-20.21625 9.639375 -19.4325 10.27875 -18.625 10.9375 C-16.20460719 12.98142313 -16.20460719 12.98142313 -14 14 C-14 14.66 -14 15.32 -14 16 C-13.01 16 -12.02 16 -11 16 C-10.690625 15.01 -10.690625 15.01 -10.375 14 C-7.92797963 8.66104647 -4.22537994 4.06140997 0 0 Z " fill="#2CA6CF" transform="translate(162,13)"/>
<path d="M0 0 C1.29653752 4.34778749 0.78866917 7.55477379 0 12 C-0.66 12.66 -1.32 13.32 -2 14 C-2.99 14 -3.98 14 -5 14 C-5 17.3 -5 20.6 -5 24 C-4.34 24 -3.68 24 -3 24 C-3.33 26.64 -3.66 29.28 -4 32 C-2.68 32 -1.36 32 0 32 C0.0928125 31.1646875 0.0928125 31.1646875 0.1875 30.3125 C1.32778978 27.06705986 3.56296168 25.37611236 6 23 C6.495 21.515 6.495 21.515 7 20 C7.66 20 8.32 20 9 20 C7.34447404 24.89920183 4.58870837 28.91421649 1.75 33.1875 C-2.33141219 39.36614754 -6.23056056 45.62560274 -10 52 C-9.22809326 51.98952637 -8.45618652 51.97905273 -7.66088867 51.96826172 C-4.16979212 51.92673546 -0.67874751 51.90068443 2.8125 51.875 C4.02744141 51.85824219 5.24238281 51.84148437 6.49414062 51.82421875 C7.65751953 51.81777344 8.82089844 51.81132813 10.01953125 51.8046875 C11.62985229 51.78897705 11.62985229 51.78897705 13.27270508 51.77294922 C16 52 16 52 19 54 C14.7648504 54.21688524 10.52939029 54.41377195 6.29248047 54.59204102 C4.85082063 54.65553381 3.40939195 54.7245198 1.96826172 54.79907227 C-0.10152815 54.90519707 -2.17134143 54.99163842 -4.2421875 55.07421875 C-5.4885498 55.13182373 -6.73491211 55.18942871 -8.01904297 55.2487793 C-9.00275879 55.16668213 -9.98647461 55.08458496 -11 55 C-13.1519437 51.77208445 -13.20086443 50.71599191 -13 47 C-12.34 47 -11.68 47 -11 47 C-11.99 44.69 -12.98 42.38 -14 40 C-14.66 40 -15.32 40 -16 40 C-16.33 38.68 -16.66 37.36 -17 36 C-20.17009472 37.62078662 -20.17009472 37.62078662 -20.51171875 40.1640625 C-20.56972656 40.97617188 -20.62773438 41.78828125 -20.6875 42.625 C-20.78611328 43.85089844 -20.78611328 43.85089844 -20.88671875 45.1015625 C-20.92410156 45.72804687 -20.96148437 46.35453125 -21 47 C-22.32 45.68 -23.64 44.36 -25 43 C-25.474375 43.94875 -25.94875 44.8975 -26.4375 45.875 C-27.29166667 47.58333333 -28.14583333 49.29166667 -29 51 C-28.690625 51.8971875 -28.690625 51.8971875 -28.375 52.8125 C-27.83274754 55.97563937 -29.22747339 57.44756168 -31 60 C-30.34 60 -29.68 60 -29 60 C-29 62.66666667 -29 65.33333333 -29 68 C-28.34773438 67.98839844 -27.69546875 67.97679688 -27.0234375 67.96484375 C-26.14945313 67.95582031 -25.27546875 67.94679688 -24.375 67.9375 C-23.51648438 67.92589844 -22.65796875 67.91429688 -21.7734375 67.90234375 C-19 68 -19 68 -16.41015625 68.48632812 C-12.14929274 69.12814204 -7.96705148 69.2311988 -3.6640625 69.31640625 C-2.78471039 69.33718735 -1.90535828 69.35796844 -0.99935913 69.37937927 C1.79201931 69.44442963 4.58348671 69.50355148 7.375 69.5625 C9.27474855 69.60572762 11.17448831 69.64934323 13.07421875 69.69335938 C17.71605614 69.80006501 22.35798246 69.90145615 27 70 C27 70.33 27 70.66 27 71 C19.65450492 71.04640556 12.30904161 71.08191089 4.96342945 71.10362434 C1.55230838 71.11404739 -1.85871217 71.12817938 -5.26977539 71.15087891 C-9.19416081 71.17683004 -13.11850596 71.18648505 -17.04296875 71.1953125 C-18.26396774 71.20563507 -19.48496674 71.21595764 -20.7429657 71.22659302 C-21.8837709 71.22674408 -23.02457611 71.22689514 -24.19995117 71.22705078 C-25.20144699 71.231492 -26.20294281 71.23593323 -27.23478699 71.24050903 C-30.22946902 70.98004155 -32.33444859 70.38232952 -35 69 C-37.48286367 65.27570449 -37.57845797 62.31548013 -37 58 C-35.62890625 54.8515625 -35.62890625 54.8515625 -33.5625 51.625 C-33.17562012 51.01124512 -32.78874023 50.39749023 -32.39013672 49.76513672 C-30.94810598 47.49568467 -29.47494364 45.24820227 -28 43 C-26.66768887 40.94809837 -25.3356794 38.89600085 -24.00390625 36.84375 C-21.08066264 32.35163079 -18.14533388 27.86776885 -15.19921875 23.390625 C-11.58771252 17.90093911 -8.00219103 12.39517868 -4.4375 6.875 C-3.97875488 6.1648877 -3.52000977 5.45477539 -3.04736328 4.72314453 C-2.03100501 3.14913126 -1.01539729 1.57463337 0 0 Z " fill="#4475DB" transform="translate(89,42)"/>
<path d="M0 0 C0.33 0.66 0.66 1.32 1 2 C0.04060332 3.69036558 -0.96642853 5.35394174 -2 7 C-2.69822617 8.65369357 -3.37498605 10.31727014 -4 12 C-4.66 12 -5.32 12 -6 12 C-5.773125 12.680625 -5.54625 13.36125 -5.3125 14.0625 C-4.87709824 18.15527655 -6.20163215 20.33132959 -8 24 C-7.01 23.67 -6.02 23.34 -5 23 C-2.29876894 23.16011121 0.31875231 23.60440608 3 24 C3 21.69 3 19.38 3 17 C5.89234315 16.17361624 7.88742431 16 11 16 C9.35956303 20.71052849 6.8434615 24.68961148 4.1875 28.875 C3.76146484 29.55691406 3.33542969 30.23882812 2.89648438 30.94140625 C1.61685125 32.97410637 0.31471611 34.98983593 -1 37 C-1.44005371 37.68223633 -1.88010742 38.36447266 -2.33349609 39.06738281 C-3.47572183 40.7680966 -4.7302043 42.39229172 -6 44 C-6.99 44 -7.98 44 -9 44 C-9.1546875 44.86625 -9.1546875 44.86625 -9.3125 45.75 C-10.10896465 48.35661158 -11.19065277 49.9735311 -13 52 C-13.66 52 -14.32 52 -15 52 C-15.185625 53.2065625 -15.185625 53.2065625 -15.375 54.4375 C-15.684375 55.7059375 -15.684375 55.7059375 -16 57 C-16.99 57.495 -16.99 57.495 -18 58 C-18 57.34 -18 56.68 -18 56 C-18.66 56 -19.32 56 -20 56 C-19.67 53.36 -19.34 50.72 -19 48 C-19.66 48 -20.32 48 -21 48 C-22.41990291 41.05825243 -22.41990291 41.05825243 -21 38 C-20.33613281 37.76152344 -19.67226562 37.52304687 -18.98828125 37.27734375 C-18.33214844 36.85582031 -17.67601563 36.43429688 -17 36 C-16.4440988 33.16294894 -16.4440988 33.16294894 -16.375 29.8125 C-15.40865933 21.19522361 -11.43604317 15.57282568 -6.31787109 8.75830078 C-4.15839086 5.87712689 -2.08706794 2.93388545 0 0 Z " fill="#3E84D6" transform="translate(105,18)"/>
<path d="M0 0 C6.36615625 4.0870504 12.22178481 11.51216641 15.26953125 18.45703125 C14.93953125 19.11703125 14.60953125 19.77703125 14.26953125 20.45703125 C12.33203125 19.89453125 12.33203125 19.89453125 10.26953125 18.45703125 C9.51953125 14.83203125 9.51953125 14.83203125 9.26953125 11.45703125 C8.27953125 11.12703125 7.28953125 10.79703125 6.26953125 10.45703125 C5.93953125 11.77703125 5.60953125 13.09703125 5.26953125 14.45703125 C3.61953125 14.78703125 1.96953125 15.11703125 0.26953125 15.45703125 C0.26953125 18.09703125 0.26953125 20.73703125 0.26953125 23.45703125 C-0.39046875 23.45703125 -1.05046875 23.45703125 -1.73046875 23.45703125 C-1.40046875 24.77703125 -1.07046875 26.09703125 -0.73046875 27.45703125 C-3.98595628 24.43407854 -6.42023933 21.25240816 -8.73046875 17.45703125 C-8.73046875 16.79703125 -8.73046875 16.13703125 -8.73046875 15.45703125 C-11.04046875 15.45703125 -13.35046875 15.45703125 -15.73046875 15.45703125 C-16.01921875 16.24078125 -16.30796875 17.02453125 -16.60546875 17.83203125 C-17.73046875 20.45703125 -17.73046875 20.45703125 -19.73046875 22.45703125 C-19.73046875 19.45703125 -19.73046875 19.45703125 -18.73046875 17.45703125 C-19.72046875 17.78703125 -20.71046875 18.11703125 -21.73046875 18.45703125 C-22.19453125 17.28140625 -22.19453125 17.28140625 -22.66796875 16.08203125 C-23.65921913 13.53372997 -23.65921913 13.53372997 -24.73046875 11.45703125 C-25.72046875 11.45703125 -26.71046875 11.45703125 -27.73046875 11.45703125 C-27.23546875 10.69390625 -26.74046875 9.93078125 -26.23046875 9.14453125 C-24.48678567 6.53339374 -24.48678567 6.53339374 -24.73046875 3.45703125 C-24.40046875 2.46703125 -24.07046875 1.47703125 -23.73046875 0.45703125 C-15.79105921 -3.23890078 -7.9207478 -3.81869102 0 0 Z " fill="#24BCCB" transform="translate(186.73046875,11.54296875)"/>
<path d="M0 0 C1.0326802 2.78823655 1.04509293 3.8677274 0.0625 6.75 C-0.288125 7.4925 -0.63875 8.235 -1 9 C-0.34 9 0.32 9 1 9 C1.33 9.99 1.66 10.98 2 12 C2.99 12.66 3.98 13.32 5 14 C4.01 14 3.02 14 2 14 C2.66 14.66 3.32 15.32 4 16 C4.66 16 5.32 16 6 16 C6 16.99 6 17.98 6 19 C6.5259375 17.7625 6.5259375 17.7625 7.0625 16.5 C7.701875 15.675 8.34125 14.85 9 14 C12.6875 13.6875 12.6875 13.6875 16 14 C16 14.33 16 14.66 16 15 C15.08605469 15.22042969 14.17210937 15.44085938 13.23046875 15.66796875 C9.32892938 17.27670506 8.40471738 18.70842391 6.3125 22.3125 C5.75175781 23.25738281 5.19101563 24.20226562 4.61328125 25.17578125 C3.54579519 27.04452803 2.52114111 28.93846071 1.54296875 30.85546875 C1.03378906 31.56316406 0.52460938 32.27085938 0 33 C-1.32 33 -2.64 33 -4 33 C-5.44921875 31.390625 -5.44921875 31.390625 -6.6875 29.25 C-7.10386719 28.55390625 -7.52023438 27.8578125 -7.94921875 27.140625 C-8.9564109 25.08879861 -9.54252449 23.23207832 -10 21 C-10.66 21 -11.32 21 -12 21 C-14.1875 18.6875 -14.1875 18.6875 -16 16 C-15.67 15.01 -15.34 14.02 -15 13 C-14.67 13.99 -14.34 14.98 -14 16 C-13.01 16 -12.02 16 -11 16 C-10.79375 15.34 -10.5875 14.68 -10.375 14 C-7.92797963 8.66104647 -4.22537994 4.06140997 0 0 Z " fill="#2BA9C4" transform="translate(162,13)"/>
<path d="M0 0 C0.99 0.33 1.98 0.66 3 1 C4 4 4 4 5 7 C5.99 7.33 6.98 7.66 8 8 C8 8.66 8 9.32 8 10 C8.99 10 9.98 10 11 10 C13.1875 13 13.1875 13 15 16 C14.67 16.66 14.34 17.32 14 18 C12.35 17.34 10.7 16.68 9 16 C9 15.01 9 14.02 9 13 C8.34 13 7.68 13 7 13 C7.2784375 14.1446875 7.2784375 14.1446875 7.5625 15.3125 C8 18 8 18 7 21 C6.34 21 5.68 21 5 21 C5.65585189 24.60992379 5.65585189 24.60992379 7 28 C6.83219837 30.69565202 6.38844355 33.32405554 6 36 C1.20700269 31.93321441 -1.48939071 26.99717307 -4.546875 21.546875 C-5.77123571 19.14084595 -5.77123571 19.14084595 -7 18 C-7.04063832 16.33382885 -7.042721 14.66611905 -7 13 C-6.01 13 -5.02 13 -4 13 C-1.99706653 9.99559979 -1.50728374 8.29006055 -0.875 4.8125 C-0.62363281 3.46091797 -0.62363281 3.46091797 -0.3671875 2.08203125 C-0.24601563 1.39496094 -0.12484375 0.70789062 0 0 Z " fill="#17D6C3" transform="translate(213,54)"/>
<path d="M0 0 C2 3 2 3 1.8125 5.5625 C1 8 1 8 -2 10 C-2.57993699 12.19454681 -2.57993699 12.19454681 -2.6875 14.625 C-2.75324219 15.44226563 -2.81898437 16.25953125 -2.88671875 17.1015625 C-2.92410156 17.72804688 -2.96148437 18.35453125 -3 19 C-4.32 17.68 -5.64 16.36 -7 15 C-7.474375 15.94875 -7.94875 16.8975 -8.4375 17.875 C-9.29166667 19.58333333 -10.14583333 21.29166667 -11 23 C-10.79375 23.598125 -10.5875 24.19625 -10.375 24.8125 C-9.83274754 27.97563937 -11.22747339 29.44756168 -13 32 C-12.34 32 -11.68 32 -11 32 C-11 34.66666667 -11 37.33333333 -11 40 C-10.02160156 39.98259766 -10.02160156 39.98259766 -9.0234375 39.96484375 C-7.71246094 39.95130859 -7.71246094 39.95130859 -6.375 39.9375 C-5.51648438 39.92589844 -4.65796875 39.91429687 -3.7734375 39.90234375 C-1 40 -1 40 1.58984375 40.48632812 C5.85070726 41.12814204 10.03294852 41.2311988 14.3359375 41.31640625 C15.21528961 41.33718735 16.09464172 41.35796844 17.00064087 41.37937927 C19.79201931 41.44442963 22.58348671 41.50355148 25.375 41.5625 C27.27474855 41.60572762 29.17448831 41.64934323 31.07421875 41.69335938 C35.71605614 41.80006501 40.35798246 41.90145615 45 42 C45 42.33 45 42.66 45 43 C37.65450492 43.04640556 30.30904161 43.08191089 22.96342945 43.10362434 C19.55230838 43.11404739 16.14128783 43.12817938 12.73022461 43.15087891 C8.80583919 43.17683004 4.88149404 43.18648505 0.95703125 43.1953125 C-0.26396774 43.20563507 -1.48496674 43.21595764 -2.7429657 43.22659302 C-3.8837709 43.22674408 -5.02457611 43.22689514 -6.19995117 43.22705078 C-7.20144699 43.231492 -8.20294281 43.23593323 -9.23478699 43.24050903 C-12.22946902 42.98004155 -14.33444859 42.38232952 -17 41 C-19.48487254 37.27269119 -19.62852022 34.31883182 -19 30 C-17.80697247 27.39205335 -16.68337953 25.29262079 -15.125 22.9375 C-14.72804932 22.3077124 -14.33109863 21.6779248 -13.92211914 21.02905273 C-12.63614742 19.00459229 -11.32211804 17.0010178 -10 15 C-9.5354541 14.29133789 -9.0709082 13.58267578 -8.59228516 12.85253906 C-5.76327914 8.54418036 -2.89655795 4.26320116 0 0 Z " fill="#4462D0" transform="translate(71,70)"/>
<path d="M0 0 C0.495 0.99 0.495 0.99 1 2 C1.66 2 2.32 2 3 2 C2.58853661 7.75313987 0.87799246 11.37311073 -2.5 16.0625 C-3.4144013 17.37255413 -4.32712323 18.68378181 -5.23828125 19.99609375 C-5.70057129 20.65722168 -6.16286133 21.31834961 -6.63916016 21.99951172 C-8.37140746 24.54598363 -9.96504057 27.16492298 -11.56420898 29.79614258 C-17.99039871 40.25877836 -17.99039871 40.25877836 -24 43 C-27.38158545 43.3530773 -30.61730633 43.30628011 -34 43 C-34 42.34 -34 41.68 -34 41 C-31.46436342 38.73603877 -29.34249629 37.59687434 -26 37 C-26 37.66 -26 38.32 -26 39 C-25.01 39 -24.02 39 -23 39 C-23.20625 38.236875 -23.4125 37.47375 -23.625 36.6875 C-24 34 -24 34 -22 31 C-21.01 31 -20.02 31 -19 31 C-17.0549 28.08235 -16.54723683 26.37462715 -16 23 C-14.02 22.67 -12.04 22.34 -10 22 C-9.17361624 19.10765685 -9 17.11257569 -9 14 C-8.44753288 11.29685728 -7.71149502 8.66810631 -7 6 C-5.02 6 -3.04 6 -1 6 C-0.67 4.02 -0.34 2.04 0 0 Z " fill="#3598CF" transform="translate(140,68)"/>
<path d="M0 0 C0.99 0.495 0.99 0.495 2 1 C2 1.66 2 2.32 2 3 C2.99 3 3.98 3 5 3 C5.33 2.01 5.66 1.02 6 0 C9.35435922 1.38801071 11.11290303 2.88629 13 6 C13 6.99 13 7.98 13 9 C13.99 9 14.98 9 16 9 C16 10.32 16 11.64 16 13 C16.99 13 17.98 13 19 13 C19.66 11.68 20.32 10.36 21 9 C21 12.31356792 20.4301261 13.40921919 18.75 16.1875 C18.33234375 16.90292969 17.9146875 17.61835937 17.484375 18.35546875 C16.99453125 18.89816406 16.5046875 19.44085938 16 20 C14.68 20 13.36 20 12 20 C10.55078125 18.390625 10.55078125 18.390625 9.3125 16.25 C8.89613281 15.55390625 8.47976562 14.8578125 8.05078125 14.140625 C7.0435891 12.08879861 6.45747551 10.23207832 6 8 C5.34 8 4.68 8 4 8 C0 3.64705882 0 3.64705882 0 0 Z " fill="#2B8AA6" transform="translate(146,26)"/>
<path d="M0 0 C0.66 0 1.32 0 2 0 C1.38722388 2.96175123 0.74627478 4.38058783 -1 7 C0.32 7.33 1.64 7.66 3 8 C4.25 15.625 4.25 15.625 2 19 C1.34 19 0.68 19 0 19 C-0.185625 20.2065625 -0.185625 20.2065625 -0.375 21.4375 C-0.58125 22.283125 -0.7875 23.12875 -1 24 C-1.66 24.33 -2.32 24.66 -3 25 C-3 24.34 -3 23.68 -3 23 C-3.66 23 -4.32 23 -5 23 C-4.67 20.36 -4.34 17.72 -4 15 C-4.66 15 -5.32 15 -6 15 C-7.43671608 7.97605473 -7.43671608 7.97605473 -6 5 C-3.5 3.375 -3.5 3.375 -1 2 C-0.67 1.34 -0.34 0.68 0 0 Z " fill="#407DDC" transform="translate(90,51)"/>
<path d="M0 0 C0.33 0 0.66 0 1 0 C1.33 2.31 1.66 4.62 2 7 C2.33 7 2.66 7 3 7 C3 5.35 3 3.7 3 2 C3.99 3.485 3.99 3.485 5 5 C5.99 5.33 6.98 5.66 8 6 C8 7.32 8 8.64 8 10 C8.65226562 9.98839844 9.30453125 9.97679688 9.9765625 9.96484375 C10.85054687 9.95582031 11.72453125 9.94679688 12.625 9.9375 C13.48351562 9.92589844 14.34203125 9.91429688 15.2265625 9.90234375 C18 10 18 10 20.58984375 10.48632812 C24.85070726 11.12814204 29.03294852 11.2311988 33.3359375 11.31640625 C34.21528961 11.33718735 35.09464172 11.35796844 36.00064087 11.37937927 C38.79201931 11.44442963 41.58348671 11.50355148 44.375 11.5625 C46.27474855 11.60572762 48.17448831 11.64934323 50.07421875 11.69335938 C54.71605614 11.80006501 59.35798246 11.90145615 64 12 C64 12.33 64 12.66 64 13 C56.65450492 13.04640556 49.30904161 13.08191089 41.96342945 13.10362434 C38.55230838 13.11404739 35.14128783 13.12817938 31.73022461 13.15087891 C27.80583919 13.17683004 23.88149404 13.18648505 19.95703125 13.1953125 C18.73603226 13.20563507 17.51503326 13.21595764 16.2570343 13.22659302 C15.1162291 13.22674408 13.97542389 13.22689514 12.80004883 13.22705078 C11.79855301 13.231492 10.79705719 13.23593323 9.76521301 13.24050903 C6.77053098 12.98004155 4.66555141 12.38232952 2 11 C-0.67927341 6.98108988 -0.15601248 4.75838077 0 0 Z " fill="#4F73BF" transform="translate(52,100)"/>
<path d="M0 0 C0.66 0 1.32 0 2 0 C2.33 1.32 2.66 2.64 3 4 C3.66 4 4.32 4 5 4 C5.66 5.98 6.32 7.96 7 10 C7.66 10 8.32 10 9 10 C9.99 12.31 10.98 14.62 12 17 C11.34 17 10.68 17 10 17 C10 17.66 10 18.32 10 19 C8.125 18.6875 8.125 18.6875 6 18 C4 15 4 15 4 12 C2.68 12 1.36 12 0 12 C-1.95229194 10.55385782 -2.85442787 9.29114426 -3.9375 7.125 C-4 5 -4 5 -2.1875 2.25 C-1.465625 1.5075 -0.74375 0.765 0 0 Z " fill="#206884" transform="translate(138,48)"/>
<path d="M0 0 C2.2477975 2.05233685 3.0022242 3.00667261 4 6 C5.32 6 6.64 6 8 6 C8.268125 6.969375 8.53625 7.93875 8.8125 8.9375 C9.204375 9.948125 9.59625 10.95875 10 12 C10.99 12.33 11.98 12.66 13 13 C11.8141763 16.37503669 10.72426311 18.64722731 8 21 C8.33 19.35 8.66 17.7 9 16 C8.34 16 7.68 16 7 16 C6.67 14.02 6.34 12.04 6 10 C4.35 10.66 2.7 11.32 1 12 C0.67 11.34 0.34 10.68 0 10 C-0.99 10.33 -1.98 10.66 -3 11 C-2.88590407 9.54077307 -2.75834456 8.08259402 -2.625 6.625 C-2.55539063 5.81289063 -2.48578125 5.00078125 -2.4140625 4.1640625 C-2 2 -2 2 0 0 Z " fill="#3082AB" transform="translate(134,54)"/>
<path d="M0 0 C0.33 1.32 0.66 2.64 1 4 C0.34 4 -0.32 4 -1 4 C-1 4.99 -1 5.98 -1 7 C-3 9.1875 -3 9.1875 -5 11 C-4.34 12.65 -3.68 14.3 -3 16 C-3.99 15.67 -4.98 15.34 -6 15 C-6.0825 15.556875 -6.165 16.11375 -6.25 16.6875 C-7 19 -7 19 -9.0625 21.5625 C-11.31112206 23.87245668 -11.31112206 23.87245668 -11 27 C-11.66 26.67 -12.32 26.34 -13 26 C-14.65 27.32 -16.3 28.64 -18 30 C-18 26.06695528 -16.20506641 23.93037171 -14.0625 20.80078125 C-13.66297119 20.20573288 -13.26344238 19.61068451 -12.85180664 18.99760437 C-11.57430271 17.0981405 -10.28732011 15.20532135 -9 13.3125 C-8.13218042 12.02581672 -7.26498504 10.73871219 -6.3984375 9.45117188 C-4.27283717 6.29584769 -2.13871331 3.14644923 0 0 Z " fill="#3D83C2" transform="translate(126,66)"/>
<path d="M0 0 C0.66 0.33 1.32 0.66 2 1 C1.67 1.66 1.34 2.32 1 3 C5.29 3 9.58 3 14 3 C14 4.32 14 5.64 14 7 C11.04160645 7.02689449 8.08345573 7.04678741 5.125 7.0625 C3.86236328 7.07506836 3.86236328 7.07506836 2.57421875 7.08789062 C1.76855469 7.09111328 0.96289062 7.09433594 0.1328125 7.09765625 C-0.98262939 7.10551147 -0.98262939 7.10551147 -2.12060547 7.11352539 C-4 7 -4 7 -6 6 C-6 5.34 -6 4.68 -6 4 C-5.34 4 -4.68 4 -4 4 C-4 3.34 -4 2.68 -4 2 C-2.125 0.9375 -2.125 0.9375 0 0 Z " fill="#1DC5C7" transform="translate(190,104)"/>
<path d="M0 0 C0.99 0.33 1.98 0.66 3 1 C1.68 3.31 0.36 5.62 -1 8 C-0.22809326 7.98952637 0.54381348 7.97905273 1.33911133 7.96826172 C4.83020788 7.92673546 8.32125249 7.90068443 11.8125 7.875 C13.02744141 7.85824219 14.24238281 7.84148437 15.49414062 7.82421875 C16.65751953 7.81777344 17.82089844 7.81132813 19.01953125 7.8046875 C20.62985229 7.78897705 20.62985229 7.78897705 22.27270508 7.77294922 C25 8 25 8 28 10 C23.7648504 10.21688524 19.52939029 10.41377195 15.29248047 10.59204102 C13.85082063 10.65553381 12.40939195 10.7245198 10.96826172 10.79907227 C8.89847185 10.90519707 6.82865857 10.99163842 4.7578125 11.07421875 C2.88826904 11.16062622 2.88826904 11.16062622 0.98095703 11.2487793 C-0.00275879 11.16668213 -0.98647461 11.08458496 -2 11 C-2.66 10.01 -3.32 9.02 -4 8 C-3.67 7.01 -3.34 6.02 -3 5 C-2.34 5 -1.68 5 -1 5 C-0.67 3.35 -0.34 1.7 0 0 Z " fill="#4D72BF" transform="translate(80,86)"/>
<path d="M0 0 C10.56 0 21.12 0 32 0 C32 0.99 32 1.98 32 3 C21.44 3 10.88 3 0 3 C0 2.01 0 1.02 0 0 Z " fill="#18D4BF" transform="translate(204,109)"/>
<path d="M0 0 C3.40651691 3.14506866 5.83759065 6.52379508 8.3125 10.4375 C8.68439453 10.99759766 9.05628906 11.55769531 9.43945312 12.13476562 C11.15580319 14.87389413 12.02122522 16.58180575 11.85546875 19.84765625 C11 22 11 22 9 23 C9 22.34 9 21.68 9 21 C8.01 20.67 7.02 20.34 6 20 C6 18.35 6 16.7 6 15 C4.68 14.67 3.36 14.34 2 14 C2.33 13.67 2.66 13.34 3 13 C3.42905762 8.28036618 2.59992959 5.89989438 0 2 C0 1.34 0 0.68 0 0 Z " fill="#18DFBE" transform="translate(230,75)"/>
<path d="M0 0 C1.32 0 2.64 0 4 0 C4.6875 1.6875 4.6875 1.6875 5 4 C3.30080473 7.66668453 1.4308624 9.89428551 -2 12 C-4.578125 12.29296875 -4.578125 12.29296875 -7.25 12.1875 C-8.14203125 12.16042969 -9.0340625 12.13335937 -9.953125 12.10546875 C-10.62859375 12.07066406 -11.3040625 12.03585938 -12 12 C-12 11.34 -12 10.68 -12 10 C-9.46436342 7.73603877 -7.34249629 6.59687434 -4 6 C-4 6.66 -4 7.32 -4 8 C-3.01 8 -2.02 8 -1 8 C-1.20625 7.236875 -1.4125 6.47375 -1.625 5.6875 C-2 3 -2 3 0 0 Z " fill="#3490D6" transform="translate(118,99)"/>
<path d="M0 0 C2.3125 -0.25 2.3125 -0.25 5 0 C6.8125 1.75 6.8125 1.75 8 4 C8 5.32 8 6.64 8 8 C8.99 8 9.98 8 11 8 C12.25664978 10.90600261 13 12.79604584 13 16 C11.68 16 10.36 16 9 16 C7.55078125 14.390625 7.55078125 14.390625 6.3125 12.25 C5.89613281 11.55390625 5.47976562 10.8578125 5.05078125 10.140625 C4.0435891 8.08879861 3.45747551 6.23207832 3 4 C2.34 4 1.68 4 1 4 C0.67 2.68 0.34 1.36 0 0 Z " fill="#1B7B93" transform="translate(149,30)"/>
<path d="M0 0 C0.6875 1.6875 0.6875 1.6875 1 4 C-0.4375 6.75 -0.4375 6.75 -2 9 C-1.34 9 -0.68 9 0 9 C-0.66 10.32 -1.32 11.64 -2 13 C-2.66 12.67 -3.32 12.34 -4 12 C-4 12.99 -4 13.98 -4 15 C-4.99 14.67 -5.98 14.34 -7 14 C-7.7833257 6.01007787 -7.7833257 6.01007787 -4.625 1.9375 C-2 0 -2 0 0 0 Z " fill="#4D68E0" transform="translate(60,93)"/>
<path d="M0 0 C0.33 0 0.66 0 1 0 C1 1.65 1 3.3 1 5 C0.34 5 -0.32 5 -1 5 C-1 5.66 -1 6.32 -1 7 C-1.33 7.33 -1.66 7.66 -2 8 C-1.01 8 -0.02 8 1 8 C1 10.31 1 12.62 1 15 C0.01 14.34 -0.98 13.68 -2 13 C-2.33 13.99 -2.66 14.98 -3 16 C-3.99 16.33 -4.98 16.66 -6 17 C-6.33 18.65 -6.66 20.3 -7 22 C-8.32 21.34 -9.64 20.68 -11 20 C-9.625 17.5 -9.625 17.5 -8 15 C-7.34 15 -6.68 15 -6 15 C-6 14.01 -6 13.02 -6 12 C-5.34 12 -4.68 12 -4 12 C-4.0825 11.13375 -4.165 10.2675 -4.25 9.375 C-3.9425969 5.22505812 -2.54029721 3.23310554 0 0 Z " fill="#3C98D3" transform="translate(131,58)"/>
<path d="M0 0 C1.17486927 4.69947709 0.8391623 7.27017611 0 12 C-0.66 12.66 -1.32 13.32 -2 14 C-2.99 14 -3.98 14 -5 14 C-5.33 14.66 -5.66 15.32 -6 16 C-6.99 15.34 -7.98 14.68 -9 14 C-6.03 9.38 -3.06 4.76 0 0 Z " fill="#4479CF" transform="translate(89,42)"/>
<path d="M0 0 C5.38225362 1.54783764 9.93654391 2.93654391 14 7 C14 7.66 14 8.32 14 9 C14.66 9 15.32 9 16 9 C18.1875 11.8125 18.1875 11.8125 20 15 C19.67 15.99 19.34 16.98 19 18 C17.5 16.625 17.5 16.625 16 15 C16 14.34 16 13.68 16 13 C15.34 13 14.68 13 14 13 C13.67 12.01 13.34 11.02 13 10 C9.81530529 7.66455721 6.58620225 5.65517027 3 4 C3 3.34 3 2.68 3 2 C2.01 2 1.02 2 0 2 C0 1.34 0 0.68 0 0 Z " fill="#499CC8" transform="translate(126,9)"/>
<path d="M0 0 C0.33 0.66 0.66 1.32 1 2 C0.04060332 3.69036558 -0.96642853 5.35394174 -2 7 C-2.309375 7.845625 -2.61875 8.69125 -2.9375 9.5625 C-4.16750953 12.38428656 -5.80598192 13.8767567 -8 16 C-8.33 16.99 -8.66 17.98 -9 19 C-9.9793879 20.02019573 -10.97895449 21.02149805 -12 22 C-12.33 22.66 -12.66 23.32 -13 24 C-13.66 24 -14.32 24 -15 24 C-13.39706789 19.29987704 -10.83510058 15.50638137 -8.0625 11.4375 C-7.61970703 10.77814453 -7.17691406 10.11878906 -6.72070312 9.43945312 C-4.5570912 6.23111651 -2.36376336 3.06587129 0 0 Z " fill="#4D7FC0" transform="translate(105,18)"/>
<path d="M0 0 C5.88442739 4.16215596 9.75843083 9.56864391 13 16 C12.67 16.66 12.34 17.32 12 18 C10.0625 17.4375 10.0625 17.4375 8 16 C7.25 12.375 7.25 12.375 7 9 C5.68 9 4.36 9 3 9 C2.67 8.01 2.34 7.02 2 6 C1.34 6 0.68 6 0 6 C0 4 0 2 0 0 Z " fill="#34B7B9" transform="translate(189,14)"/>
<path d="M0 0 C3 3.75 3 3.75 3 6 C3.99 6.33 4.98 6.66 6 7 C4.8141763 10.37503669 3.72426311 12.64722731 1 15 C1.33 13.35 1.66 11.7 2 10 C1.34 10 0.68 10 0 10 C-1.125 3.375 -1.125 3.375 0 0 Z " fill="#23739E" transform="translate(141,60)"/>
<path d="M0 0 C0.66 0 1.32 0 2 0 C0.30371319 5.05856959 -2.59445062 9.26160502 -5.5 13.6875 C-5.99886719 14.45900391 -6.49773437 15.23050781 -7.01171875 16.02539062 C-10.72550517 21.72550517 -10.72550517 21.72550517 -13 24 C-12.59975881 19.59734688 -10.82216334 17.10173467 -8.15625 13.74609375 C-6.88794007 12.04528514 -6.88794007 12.04528514 -6.5 9.9453125 C-5.69992073 6.83250411 -3.25537606 5.19899166 -1 3 C-0.67 2.01 -0.34 1.02 0 0 Z " fill="#4B76BE" transform="translate(96,62)"/>
<path d="M0 0 C3.17658845 3.17658845 5.17857636 6.56431237 6 11 C4.02 11.99 4.02 11.99 2 13 C1.67 12.01 1.34 11.02 1 10 C0.34 9.67 -0.32 9.34 -1 9 C-0.67 6.03 -0.34 3.06 0 0 Z " fill="#22D3CB" transform="translate(205,38)"/>
<path d="M0 0 C0.94467607 2.55062538 1.02758299 3.88690973 0.375 6.5625 C-1.29402218 9.52122114 -2.99958243 10.49979122 -6 12 C-7 10 -7 10 -6.375 7.6875 C-4.73375959 4.47962101 -2.63662947 2.42847451 0 0 Z " fill="#26B1C7" transform="translate(162,13)"/>
<path d="M0 0 C-3.46581449 1.1552715 -4.00659673 0.81550622 -7.25 -0.5 C-11.69114667 -2.09649063 -14.44244764 -2.13938809 -19 -1 C-19.33 -0.67 -19.66 -0.34 -20 0 C-21.66617115 0.04063832 -23.33388095 0.042721 -25 0 C-17.1809026 -6.6607126 -8.37365997 -4.2532876 0 0 Z " fill="#45ADC1" transform="translate(189,13)"/>
<path d="M0 0 C0.33 0.66 0.66 1.32 1 2 C1.66 2 2.32 2 3 2 C2.58706588 7.89369612 0.94914653 11.25351205 -2.5625 15.9375 C-2.98724609 16.52595703 -3.41199219 17.11441406 -3.84960938 17.72070312 C-4.8879628 19.15573089 -5.9423585 20.57912809 -7 22 C-7.33 21.34 -7.66 20.68 -8 20 C-6.94135914 18.27009804 -5.80096261 16.58989015 -4.625 14.9375 C-1.16919735 9.72974969 -0.10168781 6.20295667 0 0 Z " fill="#3990B8" transform="translate(140,68)"/>
<path d="M0 0 C1.485 0.99 1.485 0.99 3 2 C3 2.66 3 3.32 3 4 C5.97 4 8.94 4 12 4 C12.33 4.66 12.66 5.32 13 6 C5.78774617 9.25601751 5.78774617 9.25601751 2.5 8.1875 C2.005 7.795625 1.51 7.40375 1 7 C1.33 6.34 1.66 5.68 2 5 C1.10636395 2.39068734 1.10636395 2.39068734 0 0 Z " fill="#29B7BB" transform="translate(187,90)"/>
<path d="M0 0 C0.66 0.33 1.32 0.66 2 1 C2 1.66 2 2.32 2 3 C2.66 3 3.32 3 4 3 C4.66 4.98 5.32 6.96 6 9 C6.66 9 7.32 9 8 9 C8.33 10.65 8.66 12.3 9 14 C7.0625 13.3125 7.0625 13.3125 5 12 C4.25 9.375 4.25 9.375 4 7 C3.34 7 2.68 7 2 7 C0.3125 5.1875 0.3125 5.1875 -1 3 C-0.67 2.01 -0.34 1.02 0 0 Z " fill="#116382" transform="translate(139,49)"/>
<path d="M0 0 C3.33286647 1.07127851 4.51010944 2.59984363 6.125 5.5625 C7.59475241 9.03531974 7.59475241 9.03531974 10 10 C10 11.32 10 12.64 10 14 C10.66 14 11.32 14 12 14 C11.67 15.32 11.34 16.64 11 18 C11 17.01 11 16.02 11 15 C10.34 15 9.68 15 9 15 C8.67 13.68 8.34 12.36 8 11 C7.34 11 6.68 11 6 11 C4.4921875 9.1015625 4.4921875 9.1015625 2.875 6.625 C2.33617187 5.81289063 1.79734375 5.00078125 1.2421875 4.1640625 C0 2 0 2 0 0 Z " fill="#3C8CB6" transform="translate(132,37)"/>
<path d="M0 0 C2 3 2 3 1.9375 5.5 C0.70665597 8.78225076 -0.91736 9.49820102 -4 11 C-3.56179109 6.44262737 -3.14958831 3.42346555 0 0 Z " fill="#4A6DD0" transform="translate(71,70)"/>
<path d="M0 0 C0.33 1.32 0.66 2.64 1 4 C0.34 4 -0.32 4 -1 4 C-1 4.99 -1 5.98 -1 7 C-2.33333333 8.33333333 -3.66666667 9.66666667 -5 11 C-5.350625 11.886875 -5.70125 12.77375 -6.0625 13.6875 C-6.5265625 14.8321875 -6.5265625 14.8321875 -7 16 C-7.99 16.33 -8.98 16.66 -10 17 C-8.51364884 12.78345644 -6.38750841 9.37521395 -3.875 5.6875 C-3.15054688 4.61886719 -2.42609375 3.55023438 -1.6796875 2.44921875 C-0.84824219 1.23685547 -0.84824219 1.23685547 0 0 Z " fill="#4E91C4" transform="translate(126,66)"/>
<path d="M0 0 C3.97497544 3.40712181 5.86793788 7.32760855 8 12 C7.34 12 6.68 12 6 12 C6 11.34 6 10.68 6 10 C5.38125 9.95875 4.7625 9.9175 4.125 9.875 C2 9 2 9 0.75 6.125 C0 3 0 3 0 0 Z " fill="#2ECEC3" transform="translate(215,52)"/>
<path d="M0 0 C0.66 0.33 1.32 0.66 2 1 C1.608125 1.886875 1.21625 2.77375 0.8125 3.6875 C-0.37179108 7.00303974 -0.37179108 7.00303974 1.375 9.875 C2.179375 10.926875 2.179375 10.926875 3 12 C0 12 0 12 -1.625 10.75 C-3.24904729 8.68303072 -3.92217909 7.64591084 -4 5 C-2.0625 2.25 -2.0625 2.25 0 0 Z " fill="#2D7596" transform="translate(138,48)"/>
<path d="M0 0 C0.33 0 0.66 0 1 0 C1.33 2.31 1.66 4.62 2 7 C2.33 7 2.66 7 3 7 C3 5.35 3 3.7 3 2 C3.99 3.485 3.99 3.485 5 5 C5.99 5.66 6.98 6.32 8 7 C7.34 7 6.68 7 6 7 C6 7.66 6 8.32 6 9 C4.02 9.99 4.02 9.99 2 11 C-0.67927341 6.98108988 -0.15601248 4.75838077 0 0 Z " fill="#475ECB" transform="translate(52,100)"/>
<path d="M0 0 C3 1 3 1 4.5 3.8125 C4.995 4.864375 5.49 5.91625 6 7 C6.5775 7.721875 7.155 8.44375 7.75 9.1875 C8.1625 9.785625 8.575 10.38375 9 11 C8.67 11.99 8.34 12.98 8 14 C6.66101601 12.04532248 5.32870953 10.0866421 4 8.125 C3.2575 7.03445312 2.515 5.94390625 1.75 4.8203125 C0 2 0 2 0 0 Z " fill="#3BBCC7" transform="translate(186,39)"/>
<path d="M0 0 C3.97497544 3.40712181 5.86793788 7.32760855 8 12 C6.68 12.33 5.36 12.66 4 13 C3.71125 11.783125 3.4225 10.56625 3.125 9.3125 C2.32164208 6.08185352 1.33734591 3.05679065 0 0 Z " fill="#2ECBBB" transform="translate(230,75)"/>
<path d="M0 0 C0 0.66 0 1.32 0 2 C-4.455 2.495 -4.455 2.495 -9 3 C-9 3.66 -9 4.32 -9 5 C-10.98 5.33 -12.96 5.66 -15 6 C-12.86285601 3.62317631 -11.06221946 2.40068998 -8.0625 1.3125 C-7.39347656 1.06113281 -6.72445312 0.80976563 -6.03515625 0.55078125 C-4 0 -4 0 0 0 Z " fill="#5994CF" transform="translate(124,9)"/>
<path d="M0 0 C3.93345152 1.31115051 4.32374076 2.84212778 6.25 6.4375 C6.79140625 7.42621094 7.3328125 8.41492188 7.890625 9.43359375 C8.25671875 10.28050781 8.6228125 11.12742187 9 12 C8.67 12.66 8.34 13.32 8 14 C6.66101601 12.04532248 5.32870953 10.0866421 4 8.125 C3.2575 7.03445312 2.515 5.94390625 1.75 4.8203125 C0 2 0 2 0 0 Z " fill="#3FA1C1" transform="translate(154,70)"/>
<path d="M0 0 C0 3.63195496 -0.95453155 4.74713911 -3 7.6875 C-3.556875 8.49574219 -4.11375 9.30398437 -4.6875 10.13671875 C-5.120625 10.75160156 -5.55375 11.36648437 -6 12 C-6.66 10.68 -7.32 9.36 -8 8 C-7.34 8 -6.68 8 -6 8 C-6 7.34 -6 6.68 -6 6 C-5.34 6 -4.68 6 -4 6 C-3.71125 5.38125 -3.4225 4.7625 -3.125 4.125 C-2 2 -2 2 0 0 Z " fill="#457CBE" transform="translate(105,50)"/>
<path d="M0 0 C0 3 0 3 -2 6 C-1.67 5.67 -1.34 5.34 -1 5 C-0.34 4.67 0.32 4.34 1 4 C0.625 6.4375 0.625 6.4375 0 9 C-0.99 9.495 -0.99 9.495 -2 10 C-2 9.34 -2 8.68 -2 8 C-2.66 8 -3.32 8 -4 8 C-3.6875 5.125 -3.6875 5.125 -3 2 C-2.01 1.34 -1.02 0.68 0 0 Z " fill="#497FE4" transform="translate(89,66)"/>
<path d="M0 0 C1.65 1.65 3.3 3.3 5 5 C4.67 5.99 4.34 6.98 4 8 C3.01 8 2.02 8 1 8 C1 7.34 1 6.68 1 6 C0.01 6.33 -0.98 6.66 -2 7 C-1.34 4.69 -0.68 2.38 0 0 Z " fill="#2C91BF" transform="translate(133,58)"/>
<path d="M0 0 C3.2441189 1.04275251 4.60194664 2.61240491 6.3125 5.4375 C8 9 8 9 7 12 C6.0165504 10.56542672 5.03839079 9.12722594 4.0625 7.6875 C3.51722656 6.88699219 2.97195312 6.08648437 2.41015625 5.26171875 C1 3 1 3 0 0 Z " fill="#31B8B3" transform="translate(211,78)"/>
<path d="M0 0 C0.66 0 1.32 0 2 0 C2.33 0.99 2.66 1.98 3 3 C2.00390625 4.82421875 2.00390625 4.82421875 0.5625 6.6875 C0.08941406 7.31011719 -0.38367188 7.93273437 -0.87109375 8.57421875 C-1.24363281 9.04472656 -1.61617187 9.51523438 -2 10 C-2.33 8.68 -2.66 7.36 -3 6 C-2.34 6 -1.68 6 -1 6 C-1.33 4.68 -1.66 3.36 -2 2 C-1.34 1.67 -0.68 1.34 0 1 C0 0.67 0 0.34 0 0 Z " fill="#38A4D7" transform="translate(137,74)"/>
<path d="M0 0 C0.99 0 1.98 0 3 0 C4.42944945 2.35438733 5.08661261 3.48032433 4.625 6.25 C4.41875 6.8275 4.2125 7.405 4 8 C2.35 6.35 0.7 4.7 -1 3 C-0.67 2.01 -0.34 1.02 0 0 Z " fill="#3BAAC2" transform="translate(158,46)"/>
<path d="M0 0 C2.475 0.495 2.475 0.495 5 1 C5.33 2.98 5.66 4.96 6 7 C4.35 7 2.7 7 1 7 C1.33 5.68 1.66 4.36 2 3 C1.34 3 0.68 3 0 3 C0 2.01 0 1.02 0 0 Z " fill="#1AE2C8" transform="translate(222,91)"/>
<path d="M0 0 C2.475 0.99 2.475 0.99 5 2 C5 2.66 5 3.32 5 4 C5.66 4.33 6.32 4.66 7 5 C6.34 5.66 5.68 6.32 5 7 C4.01 7 3.02 7 2 7 C2 6.01 2 5.02 2 4 C1.34 3.67 0.68 3.34 0 3 C0 2.01 0 1.02 0 0 Z " fill="#29C8D0" transform="translate(184,91)"/>
<path d="M0 0 C2.9375 1.25 2.9375 1.25 6 3 C6.8125 5.0625 6.8125 5.0625 7 7 C7.33 7.66 7.66 8.32 8 9 C4.20620942 7.50958227 2.31656242 5.30937488 0 2 C0 1.34 0 0.68 0 0 Z " fill="#3BB4C6" transform="translate(175,103)"/>
<path d="M0 0 C0.33 0.66 0.66 1.32 1 2 C-0.98 4.97 -0.98 4.97 -3 8 C-3.66 7.34 -4.32 6.68 -5 6 C-4.625 3.375 -4.625 3.375 -4 1 C-2.68 0.67 -1.36 0.34 0 0 Z " fill="#3E8BC3" transform="translate(126,98)"/>
<path d="M0 0 C0.66 0.33 1.32 0.66 2 1 C0.02677065 5.56958375 -1.92236229 8.13463296 -6 11 C-4.54955729 6.89041233 -2.48889248 3.56741255 0 0 Z " fill="#4B64C1" transform="translate(62,84)"/>
<path d="M0 0 C4 4.875 4 4.875 4 6 C2.35 6 0.7 6 -1 6 C-1.625 4.125 -1.625 4.125 -2 2 C-1.34 1.34 -0.68 0.68 0 0 Z " fill="#4A71E5" transform="translate(64,84)"/>
<path d="M0 0 C0.99 0.33 1.98 0.66 3 1 C2.67 1.66 2.34 2.32 2 3 C1.34 2.67 0.68 2.34 0 2 C-0.33 3.32 -0.66 4.64 -1 6 C-2.32 5.67 -3.64 5.34 -5 5 C-3.73867769 2.47735539 -2.38561992 1.47347113 0 0 Z " fill="#2F85CD" transform="translate(120,79)"/>
<path d="M0 0 C4 4.625 4 4.625 4 8 C1.525 7.01 1.525 7.01 -1 6 C-0.67 4.02 -0.34 2.04 0 0 Z " fill="#25D0BF" transform="translate(223,64)"/>
<path d="M0 0 C-0.33 0.66 -0.66 1.32 -1 2 C-1.763125 1.896875 -2.52625 1.79375 -3.3125 1.6875 C-4.199375 1.790625 -5.08625 1.89375 -6 2 C-7.71711243 4.44496043 -7.71711243 4.44496043 -9 7 C-9.66 7 -10.32 7 -11 7 C-10.61502006 4.76711635 -10.10506663 3.16343698 -8.875 1.25 C-6.00254099 -0.66497267 -3.35516417 -0.18991495 0 0 Z " fill="#407CB5" transform="translate(127,27)"/>
<path d="M0 0 C0.66 0 1.32 0 2 0 C1.67 1.093125 1.34 2.18625 1 3.3125 C-0.13086649 6.84578884 -0.13086649 6.84578884 0 10 C-0.99 9.34 -1.98 8.68 -3 8 C-2.01 5.36 -1.02 2.72 0 0 Z " fill="#4A92DA" transform="translate(107,15)"/>
<path d="M0 0 C3.81538462 2.46153846 3.81538462 2.46153846 4.75 5.1875 C4.8325 5.785625 4.915 6.38375 5 7 C4.01 7.66 3.02 8.32 2 9 C2 8.01 2 7.02 2 6 C1.34 6 0.68 6 0 6 C0 4 0 2 0 0 Z " fill="#2BB8C1" transform="translate(189,14)"/>
<path d="M0 0 C3 1 3 1 4 3 C4.039992 4.99960012 4.04346799 7.00047242 4 9 C3.01 9.495 3.01 9.495 2 10 C2.33 8.35 2.66 6.7 3 5 C2.34 5 1.68 5 1 5 C0.67 3.35 0.34 1.7 0 0 Z " fill="#2A82A9" transform="translate(140,65)"/>
<path d="M0 0 C1.65 0 3.3 0 5 0 C4.67 1.32 4.34 2.64 4 4 C2.68 4 1.36 4 0 4 C0 2.68 0 1.36 0 0 Z " fill="#10D4C4" transform="translate(206,46)"/>
<path d="M0 0 C0.66 0 1.32 0 2 0 C2.433125 1.11375 2.433125 1.11375 2.875 2.25 C3.82302644 4.56739797 4.84845911 6.77917115 6 9 C5.01 9 4.02 9 3 9 C1.68 6.36 0.36 3.72 -1 1 C-0.67 0.67 -0.34 0.34 0 0 Z " fill="#259CBD" transform="translate(156,26)"/>
<path d="M0 0 C0.125 2.875 0.125 2.875 0 6 C-0.66 6.66 -1.32 7.32 -2 8 C-2 5 -2 5 -1 3 C-1.99 3.33 -2.98 3.66 -4 4 C-4.33 3.01 -4.66 2.02 -5 1 C-2 0 -2 0 0 0 Z " fill="#2DB7D5" transform="translate(169,26)"/>
<path d="M0 0 C2.4375 0.625 2.4375 0.625 5 2 C5.8125 5.125 5.8125 5.125 6 8 C3.33264727 5.51047079 1.44253657 3.36591866 0 0 Z " fill="#41B4C8" transform="translate(163,85)"/>
<path d="M0 0 C0.93065133 2.60582371 1.14917407 3.64198224 0.0625 6.25 C-0.4634375 7.11625 -0.4634375 7.11625 -1 8 C-1.99 8 -2.98 8 -4 8 C-2.87548273 5.0280615 -1.77706209 2.66559313 0 0 Z " fill="#5781D0" transform="translate(89,42)"/>
<path d="M0 0 C0 3.15081975 -0.27898465 4.41847698 -2 7 C-4.125 7.75 -4.125 7.75 -6 8 C-4.55746343 4.63408134 -2.66735273 2.48952921 0 0 Z " fill="#4BAAC4" transform="translate(162,13)"/>
<path d="M0 0 C0.66 0 1.32 0 2 0 C2 1.65 2 3.3 2 5 C0.35 4.67 -1.3 4.34 -3 4 C-2.67 3.34 -2.34 2.68 -2 2 C-1.34 2 -0.68 2 0 2 C0 1.34 0 0.68 0 0 Z " fill="#546CDE" transform="translate(58,107)"/>
<path d="M0 0 C1.32 0 2.64 0 4 0 C4 0.99 4 1.98 4 3 C3.34 3 2.68 3 2 3 C1.67 3.99 1.34 4.98 1 6 C0.34 4.35 -0.32 2.7 -1 1 C-0.67 0.67 -0.34 0.34 0 0 Z " fill="#379DDA" transform="translate(126,90)"/>
</svg>
